PathFileType	4	(X/Y/Z)	temp_trc_file_rotated.trc
DataRate	CameraRate	NumFrames	NumMarkers	Units	OrigDataRate	OrigDataStartFrame	OrigNumFrames
250.000000	250.000000	5	40	mm	250.000000	604	806
Frame#	Time	C7			T10			LTH3			RPSI			RTH3			LTB2			LCAL			RMT2			RTB2			RCAL			RMT1			LMT2			LTH2			RTH1			LMT1			LTB1			RTH2			LTB3			LTH1			RTB1			RTB3			CLAV			LASI			STRN			RASI			LPSI			RLFC			RMFC			LLFC			LMFC			RMMAL			RLMAL			LMMAL			LLMAL			LAJC			LHJC			LKJC			RAJC			RHJC			RKJC			
		X1	Y1	Z1	X2	Y2	Z2	X3	Y3	Z3	X4	Y4	Z4	X5	Y5	Z5	X6	Y6	Z6	X7	Y7	Z7	X8	Y8	Z8	X9	Y9	Z9	X10	Y10	Z10	X11	Y11	Z11	X12	Y12	Z12	X13	Y13	Z13	X14	Y14	Z14	X15	Y15	Z15	X16	Y16	Z16	X17	Y17	Z17	X18	Y18	Z18	X19	Y19	Z19	X20	Y20	Z20	X21	Y21	Z21	X22	Y22	Z22	X23	Y23	Z23	X24	Y24	Z24	X25	Y25	Z25	X26	Y26	Z26	X27	Y27	Z27	X28	Y28	Z28	X29	Y29	Z29	X30	Y30	Z30	X31	Y31	Z31	X32	Y32	Z32	X33	Y33	Z33	X34	Y34	Z34	X35	Y35	Z35	X36	Y36	Z36	X37	Y37	Z37	X38	Y38	Z38	X39	Y39	Z39	X40	Y40	Z40	

605	2.416	3538.87939453125	-665.2630615233459	-1547.538452148438	-340.205078125	642.5618896484375	1304.27685546875	-449.4075012207031	515.4801635742188	654.0437622070312	-358.2382507324219	705.2377319335938	1101.534790039062	-568.2991943359375	806.702392578125	706.5885009765625	-409.48583984375	532.7136840820312	329.5570983886719	-281.3203125	621.97509765625	70.18665313720703	-407.61181640625	774.2256469726562	85.91098022460938	-483.1394348144531	792.4035034179688	399.4379577636719	-253.1483612060547	723.7451171875	246.0069732666016	-429.6587219238281	693.5333862304688	84.819580078125	-501.4769592285156	555.8816528320312	48.36273574829102	-557.7062377929688	538.450439453125	755.1370849609375	-490.7736511230469	814.0489501953125	894.206298828125	-526.0381469726562	652.3720092773438	50.71322250366211	-478.5608825683594	623.9544677734375	414.1824645996094	-616.7528686523438	743.75244140625	835.3698120117188	-418.86474609375	635.2604370117188	225.6421966552734	-446.8955993652344	484.2284240722656	850.3087158203125	-576.820068359375	692.1390380859375	443.2715148925781	-441.1087951660156	701.2855224609375	303.1623840332031	-528.5203247070312	633.7337646484375	1478.8427734375	-537.6458740234375	551.2977294921875	1048.184936523438	-575.0899047851562	647.47314453125	1303.306762695312	-534.2461547851562	749.6920166015625	1050.497680664062	-359.5780639648438	594.2870483398438	1104.368774414062	-630.9622192382812	771.822021484375	525.6586303710938	-648.8115234375	669.1528930664062	523.3948974609375	-479.6241760253906	544.4007568359375	505.5436706542969	-487.716064453125	646.4126586914062	516.1090698242188	-359.4776306152344	684.5995483398438	221.0933990478516	-342.3679809570312	772.2576904296875	227.8364562988281	-405.4653015136719	656.9797973632812	125.3098449707031	-369.4281921386719	571.0061645507812	107.7179412841797	-387.4467468261719	613.9929809570312	116.5138931274414	-462.4060363769531	551.8062744140625	955.1934204101562	-483.6701049804688	595.40673828125	510.8263854980469	-350.9227905273438	728.4285888671875	224.4649200439453	-465.0223693847656	739.9750366210938	953.7805786132812	-639.8869018554688	720.4874267578125	524.5267944335938	
606	2.42	3538.87939453125	-665.2630615233459	-1547.538452148438	-346.5749816894531	642.0669555664062	1304.81884765625	-451.7974243164062	515.632568359375	654.7166748046875	-364.5349731445312	705.286376953125	1102.523681640625	-576.7512817382812	806.6436157226562	708.6433715820312	-409.9794006347656	532.7796020507812	330.0201110839844	-281.5184631347656	621.935791015625	70.75231170654297	-427.0833129882812	774.5203857421875	83.98338317871094	-495.33837890625	791.9345703125	398.7963256835938	-266.7469787597656	722.0396118164062	239.6959991455078	-449.0797119140625	693.971923828125	83.10513305664062	-501.5661926269531	555.9081420898438	48.26511001586914	-561.3140258789062	538.5369262695312	754.7421875	-497.7536315917969	813.9786376953125	895.5481567382812	-526.1029052734375	652.3265991210938	50.71971893310547	-477.538330078125	625.56591796875	416.0908508300781	-624.263427734375	743.4844360351562	837.5448608398438	-419.0735473632812	635.2232055664062	226.1138153076172	-451.6519470214844	484.2088317871094	850.9098510742188	-589.8142700195312	690.4918212890625	443.6175842285156	-455.5093994140625	700.877197265625	301.3430786132812	-534.6058349609375	633.7947387695312	1479.597900390625	-543.5182495117188	550.865966796875	1048.627197265625	-581.1325073242188	647.4492797851562	1304.241088867188	-540.84619140625	749.39208984375	1051.5546875	-365.527587890625	594.4290771484375	1105.19189453125	-640.9054565429688	771.7633056640625	528.1014404296875	-658.6367797851562	669.0718994140625	525.9204711914062	-480.2275390625	544.6987915039062	505.9443054199219	-488.3971862792969	646.704833984375	516.5062866210938	-374.9107971191406	685.1708984375	218.0826263427734	-357.5410461425781	772.7230834960938	225.5036773681641	-406.2617492675781	656.1989135742188	125.7265319824219	-371.5824890136719	569.6505737304688	108.2236557006836	-388.922119140625	612.9247436523438	116.9750900268555	-468.1741333007812	551.9940185546875	955.7015380859375	-484.3123474121094	595.7018432617188	511.2253112792969	-366.2259216308594	728.947021484375	221.7931518554688	-471.4759826660156	740.1554565429688	954.8673706054688	-649.7711181640625	720.4176025390625	527.010986328125	
607	2.424	3538.87939453125	-665.2630615233459	-1547.538452148438	-352.3564147949219	641.9365844726562	1305.545166015625	-454.2594604492188	515.7069702148438	655.2965698242188	-370.8184509277344	705.2727661132812	1103.396850585938	-585.3983154296875	806.434814453125	710.6947021484375	-410.2017517089844	532.865478515625	330.461181640625	-281.7738037109375	621.7930908203125	71.20123291015625	-446.8073120117188	774.5487670898438	82.00978851318359	-506.8454284667969	791.5440063476562	397.9886779785156	-283.0394287109375	720.4493408203125	232.6879425048828	-468.9721374511719	694.2633666992188	81.52114868164062	-501.6348876953125	556.1676635742188	48.03250885009766	-564.814453125	538.6669921875	754.2562866210938	-504.7117919921875	814.1240844726562	896.9429321289062	-526.1278076171875	652.3276977539062	50.67271041870117	-479.8936767578125	623.7435302734375	416.6496887207031	-631.38671875	743.0054321289062	839.7286987304688	-419.5313110351562	635.1873779296875	226.6001739501953	-456.0802612304688	484.4622497558594	851.7589111328125	-599.271728515625	691.6318359375	445.0320129394531	-469.9553527832031	700.5081176757812	299.5074768066406	-540.553955078125	633.9318237304688	1480.434936523438	-549.4496459960938	550.4373168945312	1048.958862304688	-587.2546997070312	647.2720947265625	1304.8984375	-546.0042114257812	748.5460205078125	1052.60107421875	-371.6256408691406	594.3128051757812	1105.8037109375	-650.9935913085938	771.3043823242188	530.6620483398438	-668.1675415039062	668.51611328125	528.5869750976562	-481.2101745605469	544.580810546875	506.3168334960938	-489.5337219238281	646.5946044921875	516.6822509765625	-391.9736328125	683.7216796875	213.7550659179688	-373.8394775390625	771.1915283203125	220.2615203857422	-406.2460632324219	656.9454345703125	126.7748718261719	-370.0966491699219	571.009765625	109.2280960083008	-388.1713562011719	613.9776000976562	118.0014801025391	-473.6488952636719	551.791259765625	956.2343139648438	-485.3719482421875	595.5877075195312	511.4995422363281	-382.9065551757812	727.4566040039062	217.0082855224609	-477.2242431640625	739.9489135742188	955.76708984375	-659.58056640625	719.9102172851562	529.62451171875	
608	2.428	3538.87939453125	-665.2630615233459	-1547.538452148438	-358.523193359375	641.6029663085938	1306.138305664062	-456.6699829101562	515.7301025390625	656.0317993164062	-377.0502014160156	705.3101196289062	1104.228881835938	-593.5801391601562	806.4805908203125	712.3734130859375	-410.4531860351562	532.9102172851562	331.0772094726562	-282.0443115234375	621.8062133789062	72.0482177734375	-467.9905700683594	774.6787109375	81.02180480957031	-519.005859375	791.04248046875	397.0476379394531	-298.8392028808594	719.7840576171875	225.8217010498047	-489.0865783691406	694.5003662109375	79.97573089599609	-501.4498901367188	556.1849365234375	47.82087326049805	-568.3331909179688	538.62109375	753.8167724609375	-511.6859130859375	814.1796875	898.1911010742188	-522.2333984375	651.5835571289062	49.10635757446289	-482.4423828125	621.2410888671875	416.9426574707031	-638.8763427734375	742.6596069335938	841.5928955078125	-420.0163269042969	635.197021484375	227.0053558349609	-461.7882690429688	484.1040344238281	850.7010498046875	-609.2699584960938	692.2841796875	446.0948181152344	-484.3968200683594	700.20751953125	297.5329895019531	-546.66357421875	633.9002075195312	1481.123901367188	-555.2822875976562	549.9259643554688	1049.298706054688	-593.4125366210938	647.1261596679688	1305.649536132812	-552.1893310546875	747.9546508789062	1053.597290039062	-377.7073364257812	594.4110717773438	1106.405151367188	-660.3264770507812	771.3148803710938	532.7426147460938	-677.2880249023438	668.4910888671875	530.681640625	-480.9172668457031	545.23095703125	506.3758850097656	-488.9571838378906	647.2459106445312	516.9517211914062	-408.9383850097656	682.6510620117188	209.7099304199219	-390.395263671875	770.093994140625	215.3709259033203	-406.3089599609375	658.0735473632812	127.9713287353516	-368.3553161621094	572.9572143554688	110.241584777832	-387.3321228027344	615.515380859375	119.1064529418945	-479.30224609375	551.8118286132812	956.6572875976562	-484.9372253417969	596.2384643554688	511.663818359375	-399.6668090820312	726.37255859375	212.5404357910156	-483.5569763183594	739.9559326171875	956.7056884765625	-668.8072509765625	719.9030151367188	531.7120971679688	
609	2.432	3538.87939453125	-665.2630615233459	-1547.538452148438	-364.4768371582031	641.5604858398438	1306.926391601562	-458.9783325195312	515.751708984375	656.6187744140625	-383.3375244140625	705.206787109375	1104.967651367188	-601.4663696289062	806.3373413085938	714.0805053710938	-410.7017822265625	532.9586791992188	331.6672058105469	-282.2610168457031	621.7709350585938	72.84912872314453	-486.9312438964844	775.141845703125	78.29718780517578	-530.63037109375	790.48828125	396.0488891601562	-314.7605895996094	719.4265747070312	219.119140625	-509.1294860839844	694.7464599609375	78.38130950927734	-501.6008605957031	556.3223266601562	47.72692108154297	-571.9586181640625	538.8065795898438	753.4561157226562	-518.5720825195312	814.0848388671875	899.2587280273438	-526.44970703125	652.0723876953125	50.50961685180664	-485.6657104492188	617.3712768554688	417.6667175292969	-645.9156494140625	742.31591796875	843.61083984375	-420.3893127441406	635.0867919921875	227.472900390625	-468.7507934570312	484.5188903808594	851.2986450195312	-620.0704345703125	691.6954345703125	447.5722045898438	-498.6092224121094	699.8558959960938	295.489501953125	-552.5894165039062	634.0421752929688	1481.678955078125	-561.2913818359375	549.4739990234375	1049.543579101562	-599.3145751953125	647.0424194335938	1306.277709960938	-558.4457397460938	747.5145874023438	1054.450927734375	-383.8470764160156	594.424072265625	1106.913696289062	-669.2313232421875	771.125244140625	534.7982177734375	-686.0087280273438	668.2704467773438	532.7794799804688	-479.3562622070312	544.8736572265625	506.9949035644531	-487.1257019042969	646.9481201171875	517.19140625	-425.5231018066406	682.4112548828125	205.9096374511719	-406.7586669921875	769.824462890625	211.2931976318359	-406.2860412597656	659.6812744140625	129.7145843505859	-365.9563598632812	575.736572265625	111.6474227905273	-386.1211853027344	617.7089233398438	120.6809997558594	-485.1653747558594	551.841552734375	956.97802734375	-483.240966796875	595.910888671875	512.0931396484375	-416.1408996582031	726.1178588867188	208.6014099121094	-489.8883056640625	739.9736938476562	957.529052734375	-677.6199951171875	719.6978759765625	533.7888793945312	
